<svg xmlns="http://www.w3.org/2000/svg" width="1500" height="1040" viewBox="0 0 1500 1040" role="img" aria-labelledby="title desc">
<title id="title">Eurydica / Height and density</title><desc id="desc">District occupied-height ranges relative to local ground, using working storey guides. Roof shapes are not prescribed. The principal river crossing and mild terraces are retained.</desc>
<defs><style>
text{font-family:Arial,sans-serif;fill:#25343e}
.title{font-family:Georgia,serif;font-size:40px;font-weight:bold}
.sub{font-size:18px;fill:#54616a}
.h{font-size:24px;font-weight:bold}
.label{font-size:20px;font-weight:bold}
.small{font-size:17px}
.note{font-size:16px;fill:#54616a}
.center{text-anchor:middle}
.line{fill:none;stroke:#66747a;stroke-width:2}
.route{fill:none;stroke:#304d62;stroke-width:12;stroke-linecap:round;stroke-linejoin:round}
.dash{fill:none;stroke:#66747a;stroke-width:3;stroke-dasharray:9 7}
</style><marker id="arrow" markerWidth="8" markerHeight="8" refX="6" refY="3" orient="auto"><path d="M0 0 L6 3 L0 6" fill="none" stroke="#304d62" stroke-width="1.5"/></marker></defs>
<rect width="1500" height="1040" fill="#f7f7f3"/>
<text x="60" y="67" class="title">Eurydica / Height and density</text><text x="60" y="103" class="sub">Corrected 20 September 2026 · Relative hierarchy retained · Storeys are working guides, not fixed dimensions</text>
<text x="60" y="163" class="h">OCCUPIED HEIGHT ABOVE LOCAL GROUND</text>
<text x="60" y="198" class="note">Roof volume and terrain affect the visible skyline. Exact profiles remain to be designed.</text>
<text x="60" y="249" class="label">District</text><text x="960" y="249" class="label">Building arrangement</text><text x="440" y="249" class="small center">1 storey</text><path d="M440 266 L440 752" stroke="#d2d7d7" stroke-width="1"/><text x="580" y="249" class="small center">2 storeys</text><path d="M580 266 L580 752" stroke="#d2d7d7" stroke-width="1"/><text x="720" y="249" class="small center">3 storeys</text><path d="M720 266 L720 752" stroke="#d2d7d7" stroke-width="1"/><text x="860" y="249" class="small center">4 storeys</text><path d="M860 266 L860 752" stroke="#d2d7d7" stroke-width="1"/><path d="M60 308 L1435 308" stroke="#e1e4e2"/><text x="60" y="292" class="small">Arrival Ward</text><path d="M440 285 L580 285" stroke="#526d7b" stroke-width="12" stroke-linecap="round"/><circle cx="440" cy="285" r="8" fill="#304d62"/><circle cx="580" cy="285" r="8" fill="#304d62"/><text x="960" y="292" class="small">Lower groups with working yards</text><path d="M60 355 L1435 355" stroke="#e1e4e2"/><text x="60" y="339" class="small">Company Edge</text><path d="M440 332 L580 332" stroke="#526d7b" stroke-width="12" stroke-linecap="round"/><circle cx="440" cy="332" r="8" fill="#304d62"/><circle cx="580" cy="332" r="8" fill="#304d62"/><text x="960" y="339" class="small">Adapted base and expansion ground</text><path d="M60 402 L1435 402" stroke="#e1e4e2"/><text x="60" y="386" class="small">Market Spine</text><path d="M580 379 L720 379" stroke="#526d7b" stroke-width="12" stroke-linecap="round"/><circle cx="580" cy="379" r="8" fill="#304d62"/><circle cx="720" cy="379" r="8" fill="#304d62"/><text x="960" y="386" class="small">Attached frontage; broad main route</text><path d="M60 449 L1435 449" stroke="#e1e4e2"/><text x="60" y="433" class="small">Quays &amp; Storeyards</text><path d="M440 426 L580 426" stroke="#526d7b" stroke-width="12" stroke-linecap="round"/><circle cx="440" cy="426" r="8" fill="#304d62"/><circle cx="580" cy="426" r="8" fill="#304d62"/><text x="960" y="433" class="small">Broad footprints and loading gaps</text><path d="M60 496 L1435 496" stroke="#e1e4e2"/><text x="60" y="480" class="small">Workshop Quarter</text><path d="M440 473 L720 473" stroke="#526d7b" stroke-width="12" stroke-linecap="round"/><circle cx="440" cy="473" r="8" fill="#304d62"/><circle cx="720" cy="473" r="8" fill="#304d62"/><text x="960" y="480" class="small">Grouped work buildings and yard breaks</text><path d="M60 543 L1435 543" stroke="#e1e4e2"/><text x="60" y="527" class="small">Service Lanes</text><path d="M440 520 L580 520" stroke="#526d7b" stroke-width="12" stroke-linecap="round"/><circle cx="440" cy="520" r="8" fill="#304d62"/><circle cx="580" cy="520" r="8" fill="#304d62"/><text x="960" y="527" class="small">Small buildings and rear courts</text><path d="M60 590 L1435 590" stroke="#e1e4e2"/><text x="60" y="574" class="small">Civic Terrace</text><path d="M440 567 L580 567" stroke="#526d7b" stroke-width="12" stroke-linecap="round"/><circle cx="440" cy="567" r="8" fill="#304d62"/><circle cx="580" cy="567" r="8" fill="#304d62"/><text x="960" y="574" class="small">Small offices; expressive craftsmanship</text><path d="M60 637 L1435 637" stroke="#e1e4e2"/><text x="60" y="621" class="small">Old City Streets</text><path d="M580 614 L860 614" stroke="#526d7b" stroke-width="12" stroke-linecap="round"/><circle cx="580" cy="614" r="8" fill="#304d62"/><circle cx="860" cy="614" r="8" fill="#304d62"/><text x="960" y="621" class="small">Densest attached groups</text><path d="M60 684 L1435 684" stroke="#e1e4e2"/><text x="60" y="668" class="small">Residential Quarter</text><path d="M440 661 L720 661" stroke="#526d7b" stroke-width="12" stroke-linecap="round"/><circle cx="440" cy="661" r="8" fill="#304d62"/><circle cx="720" cy="661" r="8" fill="#304d62"/><text x="960" y="668" class="small">Courts, gardens, stepped foundations</text><path d="M60 731 L1435 731" stroke="#e1e4e2"/><text x="60" y="715" class="small">Waterworks &amp; Gardens</text><path d="M440 708 L440 708" stroke="#526d7b" stroke-width="12" stroke-linecap="round"/><circle cx="440" cy="708" r="8" fill="#304d62"/><circle cx="440" cy="708" r="8" fill="#304d62"/><text x="960" y="715" class="small">Low utilities and planted/service ground</text><text x="60" y="794" class="h">LANDMARKS AND GROUND</text>
<text x="60" y="836" class="label">Old Bridge</text><text x="60" y="865" class="small">Primary city landmark through span,</text><text x="60" y="891" class="small">river views and route importance.</text>
<text x="552" y="836" class="label">Inherited watch-bell tower</text><text x="552" y="865" class="small">Tallest architectural marker in Old City.</text><text x="552" y="891" class="small">Exact height and form remain open.</text>
<text x="1040" y="836" class="label">Mild terraces</text><text x="1040" y="865" class="small">Stepped foundations, retaining edges,</text><text x="1040" y="891" class="small">selected trees and exposed rock.</text>
<path d="M60 929 L1435 929" class="line"/>
<text x="60" y="968" class="label">SOUTH GATE → ARRIVAL → MARKET → OLD BRIDGE → CIVIC TERRACE</text>
<text x="60" y="1004" class="note">Gate: compact practical landmark, about 1–2 occupied storeys plus roof. No facade or roof family is selected by this diagram.</text>
</svg>
